<mxfile host="Electron" agent="Mozilla/5.0 (Macintosh; Intel Mac OS X 10_15_7) AppleWebKit/537.36 (KHTML, like Gecko) draw.io/25.0.2 Chrome/128.0.6613.186 Electron/32.2.5 Safari/537.36" version="25.0.2">
  <diagram name="Page-1" id="fPcSYNmvQKds9udJ0swe">
    <mxGraphModel dx="783" dy="701" grid="1" gridSize="10" guides="1" tooltips="1" connect="1" arrows="1" fold="1" page="1" pageScale="1" pageWidth="850" pageHeight="1100" math="0" shadow="0">
      <root>
        <mxCell id="0" />
        <mxCell id="1" parent="0" />
        <mxCell id="pc14qanO6FefOg-AV0mM-3" style="rounded=0;orthogonalLoop=1;jettySize=auto;html=1;" edge="1" parent="1" source="pc14qanO6FefOg-AV0mM-1" target="pc14qanO6FefOg-AV0mM-2">
          <mxGeometry relative="1" as="geometry" />
        </mxCell>
        <mxCell id="pc14qanO6FefOg-AV0mM-1" value="u" style="ellipse;whiteSpace=wrap;html=1;aspect=fixed;fillColor=none;" vertex="1" parent="1">
          <mxGeometry x="120" y="80" width="40" height="40" as="geometry" />
        </mxCell>
        <mxCell id="pc14qanO6FefOg-AV0mM-5" style="edgeStyle=none;shape=connector;rounded=0;orthogonalLoop=1;jettySize=auto;html=1;strokeColor=default;align=center;verticalAlign=middle;fontFamily=Helvetica;fontSize=11;fontColor=default;labelBackgroundColor=default;endArrow=classic;" edge="1" parent="1" source="pc14qanO6FefOg-AV0mM-2" target="pc14qanO6FefOg-AV0mM-4">
          <mxGeometry relative="1" as="geometry" />
        </mxCell>
        <mxCell id="pc14qanO6FefOg-AV0mM-2" value="" style="ellipse;whiteSpace=wrap;html=1;aspect=fixed;fillColor=none;" vertex="1" parent="1">
          <mxGeometry x="220" y="80" width="40" height="40" as="geometry" />
        </mxCell>
        <mxCell id="pc14qanO6FefOg-AV0mM-7" style="edgeStyle=none;shape=connector;rounded=0;orthogonalLoop=1;jettySize=auto;html=1;strokeColor=default;align=center;verticalAlign=middle;fontFamily=Helvetica;fontSize=11;fontColor=default;labelBackgroundColor=default;endArrow=classic;" edge="1" parent="1" source="pc14qanO6FefOg-AV0mM-4" target="pc14qanO6FefOg-AV0mM-6">
          <mxGeometry relative="1" as="geometry" />
        </mxCell>
        <mxCell id="pc14qanO6FefOg-AV0mM-4" value="v" style="ellipse;whiteSpace=wrap;html=1;aspect=fixed;fillColor=none;" vertex="1" parent="1">
          <mxGeometry x="300" y="80" width="40" height="40" as="geometry" />
        </mxCell>
        <mxCell id="pc14qanO6FefOg-AV0mM-9" style="edgeStyle=none;shape=connector;rounded=0;orthogonalLoop=1;jettySize=auto;html=1;strokeColor=default;align=center;verticalAlign=middle;fontFamily=Helvetica;fontSize=11;fontColor=default;labelBackgroundColor=default;endArrow=classic;" edge="1" parent="1" source="pc14qanO6FefOg-AV0mM-6" target="pc14qanO6FefOg-AV0mM-8">
          <mxGeometry relative="1" as="geometry" />
        </mxCell>
        <mxCell id="pc14qanO6FefOg-AV0mM-6" value="" style="ellipse;whiteSpace=wrap;html=1;aspect=fixed;fillColor=none;" vertex="1" parent="1">
          <mxGeometry x="360" y="140" width="40" height="40" as="geometry" />
        </mxCell>
        <mxCell id="pc14qanO6FefOg-AV0mM-11" style="edgeStyle=none;shape=connector;rounded=0;orthogonalLoop=1;jettySize=auto;html=1;strokeColor=default;align=center;verticalAlign=middle;fontFamily=Helvetica;fontSize=11;fontColor=default;labelBackgroundColor=default;endArrow=classic;" edge="1" parent="1" source="pc14qanO6FefOg-AV0mM-8" target="pc14qanO6FefOg-AV0mM-10">
          <mxGeometry relative="1" as="geometry" />
        </mxCell>
        <mxCell id="pc14qanO6FefOg-AV0mM-8" value="" style="ellipse;whiteSpace=wrap;html=1;aspect=fixed;fillColor=none;" vertex="1" parent="1">
          <mxGeometry x="360" y="220" width="40" height="40" as="geometry" />
        </mxCell>
        <mxCell id="pc14qanO6FefOg-AV0mM-13" style="edgeStyle=none;shape=connector;rounded=0;orthogonalLoop=1;jettySize=auto;html=1;strokeColor=default;align=center;verticalAlign=middle;fontFamily=Helvetica;fontSize=11;fontColor=default;labelBackgroundColor=default;endArrow=classic;" edge="1" parent="1" source="pc14qanO6FefOg-AV0mM-10" target="pc14qanO6FefOg-AV0mM-12">
          <mxGeometry relative="1" as="geometry" />
        </mxCell>
        <mxCell id="pc14qanO6FefOg-AV0mM-10" value="" style="ellipse;whiteSpace=wrap;html=1;aspect=fixed;fillColor=none;" vertex="1" parent="1">
          <mxGeometry x="280" y="220" width="40" height="40" as="geometry" />
        </mxCell>
        <mxCell id="pc14qanO6FefOg-AV0mM-14" style="edgeStyle=none;shape=connector;rounded=0;orthogonalLoop=1;jettySize=auto;html=1;strokeColor=#ef4444;align=center;verticalAlign=middle;fontFamily=Helvetica;fontSize=11;fontColor=default;labelBackgroundColor=default;endArrow=classic;" edge="1" parent="1" source="pc14qanO6FefOg-AV0mM-12" target="pc14qanO6FefOg-AV0mM-4">
          <mxGeometry relative="1" as="geometry" />
        </mxCell>
        <mxCell id="pc14qanO6FefOg-AV0mM-12" value="" style="ellipse;whiteSpace=wrap;html=1;aspect=fixed;fillColor=none;" vertex="1" parent="1">
          <mxGeometry x="240" y="160" width="40" height="40" as="geometry" />
        </mxCell>
        <mxCell id="pc14qanO6FefOg-AV0mM-16" value="t = 2" style="text;html=1;align=center;verticalAlign=middle;whiteSpace=wrap;rounded=0;fontFamily=Helvetica;fontSize=11;fontColor=default;labelBackgroundColor=none;" vertex="1" parent="1">
          <mxGeometry x="220" y="50" width="40" height="30" as="geometry" />
        </mxCell>
        <mxCell id="pc14qanO6FefOg-AV0mM-17" value="t₁ = 3, t₂ = 8" style="text;html=1;align=center;verticalAlign=middle;whiteSpace=wrap;rounded=0;fontFamily=Helvetica;fontSize=11;fontColor=default;labelBackgroundColor=none;" vertex="1" parent="1">
          <mxGeometry x="280" y="50" width="80" height="30" as="geometry" />
        </mxCell>
        <mxCell id="pc14qanO6FefOg-AV0mM-18" value="t = 4" style="text;html=1;align=center;verticalAlign=middle;whiteSpace=wrap;rounded=0;fontFamily=Helvetica;fontSize=11;fontColor=default;labelBackgroundColor=none;" vertex="1" parent="1">
          <mxGeometry x="400" y="145" width="40" height="30" as="geometry" />
        </mxCell>
        <mxCell id="pc14qanO6FefOg-AV0mM-19" value="t = 5" style="text;html=1;align=center;verticalAlign=middle;whiteSpace=wrap;rounded=0;fontFamily=Helvetica;fontSize=11;fontColor=default;labelBackgroundColor=none;" vertex="1" parent="1">
          <mxGeometry x="360" y="260" width="40" height="30" as="geometry" />
        </mxCell>
        <mxCell id="pc14qanO6FefOg-AV0mM-20" value="t = 6" style="text;html=1;align=center;verticalAlign=middle;whiteSpace=wrap;rounded=0;fontFamily=Helvetica;fontSize=11;fontColor=default;labelBackgroundColor=none;" vertex="1" parent="1">
          <mxGeometry x="280" y="260" width="40" height="30" as="geometry" />
        </mxCell>
        <mxCell id="pc14qanO6FefOg-AV0mM-21" value="t = 7" style="text;html=1;align=center;verticalAlign=middle;whiteSpace=wrap;rounded=0;fontFamily=Helvetica;fontSize=11;fontColor=default;labelBackgroundColor=none;" vertex="1" parent="1">
          <mxGeometry x="200" y="165" width="40" height="30" as="geometry" />
        </mxCell>
        <mxCell id="pc14qanO6FefOg-AV0mM-22" value="t = 1" style="text;html=1;align=center;verticalAlign=middle;whiteSpace=wrap;rounded=0;fontFamily=Helvetica;fontSize=11;fontColor=default;labelBackgroundColor=none;" vertex="1" parent="1">
          <mxGeometry x="120" y="50" width="40" height="30" as="geometry" />
        </mxCell>
      </root>
    </mxGraphModel>
  </diagram>
</mxfile>
